# xmcd CD database file
#
# Track frame offsets:
#	150
#	23175
#	47962
#	66487
#	85775
#	104300
#	124687
#	143225
#
# Disc length: 2232 seconds
#
# Revision: 0
# Processed by: cddbd v1.4PL0 Copyright (c) Steve Scherf et al.
# Submitted via: Feurio! 1.65 - http://www.feurio.com
#
DISCID=6e08b608
DTITLE=James "Blood" Ulmer - Blues Allnight
DYEAR=1990
DGENRE=Blues
TTITLE0=Blues Allnight
TTITLE1=Calling Mary
TTITLE2=Peace And Happiness
TTITLE3=She Ain't So Cold
TTITLE4=Changing Times
TTITLE5=Baby Snatcher
TTITLE6=Boss Machine
TTITLE7=I Don't Know Why
EXTD=
EXTT0=
EXTT1=
EXTT2=
EXTT3=
EXTT4=
EXTT5=
EXTT6=
EXTT7=
PLAYORDER=
